<svg width="26" height="23" viewBox="0 0 26 23" fill="none" xmlns="http://www.w3.org/2000/svg">
<g opacity="0.3" filter="url(#filter0_d_216_257)">
<path d="M21.5417 1.71084C20.8824 1.99685 20.1852 2.18592 19.4718 2.27217C20.2244 1.82251 20.7885 1.11511 21.0593 0.281193C20.352 0.702249 19.5777 0.998908 18.7701 1.15828C18.2303 0.572887 17.5114 0.18322 16.7263 0.05039C15.9412 -0.0824399 15.1342 0.0490805 14.4319 0.424324C13.7295 0.799568 13.1716 1.39731 12.8456 2.1238C12.5196 2.8503 12.4439 3.66445 12.6305 4.43857C11.2004 4.36623 9.80142 3.99385 8.52457 3.3456C7.24773 2.69736 6.12153 1.78775 5.21915 0.675881C4.90264 1.22859 4.73633 1.85453 4.73675 2.49144C4.73563 3.08293 4.88078 3.66552 5.15929 4.18734C5.4378 4.70916 5.84102 5.15402 6.33304 5.4823C5.76116 5.46674 5.2015 5.31329 4.70167 5.03499V5.07884C4.70595 5.90759 4.99636 6.70942 5.52377 7.34871C6.05118 7.98799 6.78321 8.42548 7.59604 8.58718C7.28315 8.6824 6.95829 8.73261 6.63125 8.73628C6.40487 8.73364 6.17905 8.71311 5.9559 8.67489C6.18737 9.38779 6.63531 10.0108 7.23738 10.4573C7.83946 10.9037 8.56573 11.1514 9.31513 11.1658C8.04967 12.1615 6.48731 12.705 4.87708 12.7095C4.58391 12.7104 4.29096 12.6929 4 12.6568C5.64403 13.7183 7.55992 14.2818 9.51686 14.2795C10.8673 14.2935 12.207 14.0383 13.4577 13.5287C14.7084 13.0192 15.845 12.2656 16.8012 11.3118C17.7574 10.3581 18.514 9.22341 19.0267 7.97401C19.5394 6.72462 19.7981 5.38558 19.7875 4.03511C19.7875 3.88601 19.7875 3.72813 19.7875 3.57026C20.4758 3.057 21.0693 2.42779 21.5417 1.71084Z" fill="currentColor"/>
</g>
<defs>
<filter id="filter0_d_216_257" x="0" y="0" width="25.5416" height="22.28" filterUnits="userSpaceOnUse" color-interpolation-filters="sRGB">
<feFlood flood-opacity="0" result="BackgroundImageFix"/>
<feColorMatrix in="SourceAlpha" type="matrix" values="0 0 0 0 0 0 0 0 0 0 0 0 0 0 0 0 0 0 127 0" result="hardAlpha"/>
<feOffset dy="4"/>
<feGaussianBlur stdDeviation="2"/>
<feComposite in2="hardAlpha" operator="out"/>
<feColorMatrix type="matrix" values="0 0 0 0 0 0 0 0 0 0 0 0 0 0 0 0 0 0 0.25 0"/>
<feBlend mode="normal" in2="BackgroundImageFix" result="effect1_dropShadow_216_257"/>
<feBlend mode="normal" in="SourceGraphic" in2="effect1_dropShadow_216_257" result="shape"/>
</filter>
</defs>
</svg>
